<svg width="30" height="26" viewBox="0 0 30 26" fill="none" xmlns="http://www.w3.org/2000/svg">
<path d="M24.7333 7.55998V14.4267C24.7333 18.5333 22.3867 20.2933 18.8667 20.2933H7.14666C6.54666 20.2933 5.97333 20.24 5.43999 20.12C5.10666 20.0667 4.78667 19.9734 4.49334 19.8667C2.49334 19.12 1.28 17.3867 1.28 14.4267V7.55998C1.28 3.45331 3.62666 1.69336 7.14666 1.69336H18.8667C21.8533 1.69336 24 2.96002 24.5733 5.85335C24.6667 6.38669 24.7333 6.93331 24.7333 7.55998Z" stroke="white" stroke-width="1.5" stroke-miterlimit="10" stroke-linecap="round" stroke-linejoin="round"/>
<path d="M28.7348 11.5601V18.4268C28.7348 22.5335 26.3881 24.2935 22.8681 24.2935H11.1481C10.1615 24.2935 9.26815 24.1602 8.49481 23.8669C6.90815 23.2802 5.82813 22.0669 5.44147 20.1202C5.9748 20.2402 6.54813 20.2935 7.14813 20.2935H18.8681C22.3881 20.2935 24.7348 18.5335 24.7348 14.4268V7.56014C24.7348 6.93347 24.6815 6.37352 24.5748 5.85352C27.1081 6.38685 28.7348 8.17347 28.7348 11.5601Z" stroke="white" stroke-width="1.5" stroke-miterlimit="10" stroke-linecap="round" stroke-linejoin="round"/>
<path d="M12.9979 14.5199C14.942 14.5199 16.5179 12.9439 16.5179 10.9998C16.5179 9.05581 14.942 7.47983 12.9979 7.47983C11.0539 7.47983 9.47791 9.05581 9.47791 10.9998C9.47791 12.9439 11.0539 14.5199 12.9979 14.5199Z" stroke="white" stroke-width="1.5" stroke-miterlimit="10" stroke-linecap="round" stroke-linejoin="round"/>
<path d="M5.37335 8.06665V13.9333" stroke="white" stroke-width="1.5" stroke-miterlimit="10" stroke-linecap="round" stroke-linejoin="round"/>
<path d="M20.629 8.06705V13.9337" stroke="white" stroke-width="1.5" stroke-miterlimit="10" stroke-linecap="round" stroke-linejoin="round"/>
</svg>
